<mxfile host="app.diagrams.net" modified="2022-10-30T04:45:44.565Z" agent="5.0 (Windows NT 10.0; Win64; x64) AppleWebKit/537.36 (KHTML, like Gecko) Chrome/106.0.0.0 Safari/537.36" etag="XhG70Je69D5LUEVwKDCd" version="20.5.1" type="github">
  <diagram id="Oz1kL4ib9e2_89oNv3oq" name="Page-1">
    <mxGraphModel dx="868" dy="492" grid="1" gridSize="10" guides="1" tooltips="1" connect="1" arrows="1" fold="1" page="1" pageScale="1" pageWidth="850" pageHeight="1100" math="0" shadow="0">
      <root>
        <mxCell id="0" />
        <mxCell id="1" parent="0" />
        <mxCell id="KUCTA_fGjytKfLUlNLZ2-14" value="" style="group" vertex="1" connectable="0" parent="1">
          <mxGeometry x="110" y="90" width="130" height="330" as="geometry" />
        </mxCell>
        <mxCell id="KUCTA_fGjytKfLUlNLZ2-1" value="" style="shape=parallelogram;perimeter=parallelogramPerimeter;whiteSpace=wrap;html=1;fixedSize=1;" vertex="1" parent="KUCTA_fGjytKfLUlNLZ2-14">
          <mxGeometry x="10" y="80" width="120" height="30" as="geometry" />
        </mxCell>
        <mxCell id="KUCTA_fGjytKfLUlNLZ2-2" value="Input -Fer" style="text;html=1;strokeColor=none;fillColor=none;align=center;verticalAlign=middle;whiteSpace=wrap;rounded=0;" vertex="1" parent="KUCTA_fGjytKfLUlNLZ2-14">
          <mxGeometry x="30" y="80" width="60" height="30" as="geometry" />
        </mxCell>
        <mxCell id="KUCTA_fGjytKfLUlNLZ2-3" value="" style="shape=parallelogram;perimeter=parallelogramPerimeter;whiteSpace=wrap;html=1;fixedSize=1;" vertex="1" parent="KUCTA_fGjytKfLUlNLZ2-14">
          <mxGeometry y="150" width="120" height="30" as="geometry" />
        </mxCell>
        <mxCell id="KUCTA_fGjytKfLUlNLZ2-4" value="c=5/9*(f-32)" style="text;html=1;strokeColor=none;fillColor=none;align=center;verticalAlign=middle;whiteSpace=wrap;rounded=0;" vertex="1" parent="KUCTA_fGjytKfLUlNLZ2-14">
          <mxGeometry x="20" y="150" width="80" height="30" as="geometry" />
        </mxCell>
        <mxCell id="KUCTA_fGjytKfLUlNLZ2-5" value="" style="shape=parallelogram;perimeter=parallelogramPerimeter;whiteSpace=wrap;html=1;fixedSize=1;" vertex="1" parent="KUCTA_fGjytKfLUlNLZ2-14">
          <mxGeometry y="230" width="120" height="30" as="geometry" />
        </mxCell>
        <mxCell id="KUCTA_fGjytKfLUlNLZ2-6" value="print c" style="text;html=1;strokeColor=none;fillColor=none;align=center;verticalAlign=middle;whiteSpace=wrap;rounded=0;" vertex="1" parent="KUCTA_fGjytKfLUlNLZ2-14">
          <mxGeometry x="20" y="230" width="60" height="30" as="geometry" />
        </mxCell>
        <mxCell id="KUCTA_fGjytKfLUlNLZ2-7" value="Start" style="rounded=1;whiteSpace=wrap;html=1;" vertex="1" parent="KUCTA_fGjytKfLUlNLZ2-14">
          <mxGeometry x="10" width="120" height="30" as="geometry" />
        </mxCell>
        <mxCell id="KUCTA_fGjytKfLUlNLZ2-8" value="Stop" style="rounded=1;whiteSpace=wrap;html=1;" vertex="1" parent="KUCTA_fGjytKfLUlNLZ2-14">
          <mxGeometry y="300" width="120" height="30" as="geometry" />
        </mxCell>
        <mxCell id="KUCTA_fGjytKfLUlNLZ2-10" value="" style="endArrow=classic;html=1;rounded=0;entryX=0.65;entryY=0.067;entryDx=0;entryDy=0;entryPerimeter=0;" edge="1" parent="KUCTA_fGjytKfLUlNLZ2-14" target="KUCTA_fGjytKfLUlNLZ2-2">
          <mxGeometry width="50" height="50" relative="1" as="geometry">
            <mxPoint x="70" y="30" as="sourcePoint" />
            <mxPoint x="120" y="-20" as="targetPoint" />
          </mxGeometry>
        </mxCell>
        <mxCell id="KUCTA_fGjytKfLUlNLZ2-11" value="" style="endArrow=classic;html=1;rounded=0;" edge="1" parent="KUCTA_fGjytKfLUlNLZ2-14">
          <mxGeometry width="50" height="50" relative="1" as="geometry">
            <mxPoint x="60.5" y="110" as="sourcePoint" />
            <mxPoint x="60" y="150" as="targetPoint" />
          </mxGeometry>
        </mxCell>
        <mxCell id="KUCTA_fGjytKfLUlNLZ2-12" value="" style="endArrow=classic;html=1;rounded=0;exitX=0.5;exitY=1;exitDx=0;exitDy=0;" edge="1" parent="KUCTA_fGjytKfLUlNLZ2-14" source="KUCTA_fGjytKfLUlNLZ2-4">
          <mxGeometry width="50" height="50" relative="1" as="geometry">
            <mxPoint x="50" y="190" as="sourcePoint" />
            <mxPoint x="49.5" y="230" as="targetPoint" />
          </mxGeometry>
        </mxCell>
        <mxCell id="KUCTA_fGjytKfLUlNLZ2-13" value="" style="endArrow=classic;html=1;rounded=0;" edge="1" parent="KUCTA_fGjytKfLUlNLZ2-14">
          <mxGeometry width="50" height="50" relative="1" as="geometry">
            <mxPoint x="50" y="260" as="sourcePoint" />
            <mxPoint x="49.5" y="300" as="targetPoint" />
          </mxGeometry>
        </mxCell>
        <mxCell id="KUCTA_fGjytKfLUlNLZ2-15" value="" style="group" vertex="1" connectable="0" parent="1">
          <mxGeometry x="270" y="80" width="130" height="330" as="geometry" />
        </mxCell>
        <mxCell id="KUCTA_fGjytKfLUlNLZ2-16" value="" style="shape=parallelogram;perimeter=parallelogramPerimeter;whiteSpace=wrap;html=1;fixedSize=1;" vertex="1" parent="KUCTA_fGjytKfLUlNLZ2-15">
          <mxGeometry x="10" y="80" width="120" height="30" as="geometry" />
        </mxCell>
        <mxCell id="KUCTA_fGjytKfLUlNLZ2-17" value="input a, b" style="text;html=1;strokeColor=none;fillColor=none;align=center;verticalAlign=middle;whiteSpace=wrap;rounded=0;" vertex="1" parent="KUCTA_fGjytKfLUlNLZ2-15">
          <mxGeometry x="30" y="80" width="60" height="30" as="geometry" />
        </mxCell>
        <mxCell id="KUCTA_fGjytKfLUlNLZ2-18" value="" style="shape=parallelogram;perimeter=parallelogramPerimeter;whiteSpace=wrap;html=1;fixedSize=1;" vertex="1" parent="KUCTA_fGjytKfLUlNLZ2-15">
          <mxGeometry y="150" width="120" height="30" as="geometry" />
        </mxCell>
        <mxCell id="KUCTA_fGjytKfLUlNLZ2-19" value="c=a+b" style="text;html=1;strokeColor=none;fillColor=none;align=center;verticalAlign=middle;whiteSpace=wrap;rounded=0;" vertex="1" parent="KUCTA_fGjytKfLUlNLZ2-15">
          <mxGeometry x="20" y="150" width="80" height="30" as="geometry" />
        </mxCell>
        <mxCell id="KUCTA_fGjytKfLUlNLZ2-20" value="" style="shape=parallelogram;perimeter=parallelogramPerimeter;whiteSpace=wrap;html=1;fixedSize=1;" vertex="1" parent="KUCTA_fGjytKfLUlNLZ2-15">
          <mxGeometry y="230" width="120" height="30" as="geometry" />
        </mxCell>
        <mxCell id="KUCTA_fGjytKfLUlNLZ2-21" value="print c" style="text;html=1;strokeColor=none;fillColor=none;align=center;verticalAlign=middle;whiteSpace=wrap;rounded=0;" vertex="1" parent="KUCTA_fGjytKfLUlNLZ2-15">
          <mxGeometry x="20" y="230" width="60" height="30" as="geometry" />
        </mxCell>
        <mxCell id="KUCTA_fGjytKfLUlNLZ2-22" value="Start" style="rounded=1;whiteSpace=wrap;html=1;" vertex="1" parent="KUCTA_fGjytKfLUlNLZ2-15">
          <mxGeometry x="10" width="120" height="30" as="geometry" />
        </mxCell>
        <mxCell id="KUCTA_fGjytKfLUlNLZ2-23" value="Stop" style="rounded=1;whiteSpace=wrap;html=1;" vertex="1" parent="KUCTA_fGjytKfLUlNLZ2-15">
          <mxGeometry y="300" width="120" height="30" as="geometry" />
        </mxCell>
        <mxCell id="KUCTA_fGjytKfLUlNLZ2-24" value="" style="endArrow=classic;html=1;rounded=0;entryX=0.65;entryY=0.067;entryDx=0;entryDy=0;entryPerimeter=0;" edge="1" parent="KUCTA_fGjytKfLUlNLZ2-15" target="KUCTA_fGjytKfLUlNLZ2-17">
          <mxGeometry width="50" height="50" relative="1" as="geometry">
            <mxPoint x="70" y="30" as="sourcePoint" />
            <mxPoint x="120" y="-20" as="targetPoint" />
          </mxGeometry>
        </mxCell>
        <mxCell id="KUCTA_fGjytKfLUlNLZ2-25" value="" style="endArrow=classic;html=1;rounded=0;" edge="1" parent="KUCTA_fGjytKfLUlNLZ2-15">
          <mxGeometry width="50" height="50" relative="1" as="geometry">
            <mxPoint x="60.5" y="110" as="sourcePoint" />
            <mxPoint x="60" y="150" as="targetPoint" />
          </mxGeometry>
        </mxCell>
        <mxCell id="KUCTA_fGjytKfLUlNLZ2-26" value="" style="endArrow=classic;html=1;rounded=0;exitX=0.5;exitY=1;exitDx=0;exitDy=0;" edge="1" parent="KUCTA_fGjytKfLUlNLZ2-15" source="KUCTA_fGjytKfLUlNLZ2-19">
          <mxGeometry width="50" height="50" relative="1" as="geometry">
            <mxPoint x="50" y="190" as="sourcePoint" />
            <mxPoint x="49.5" y="230" as="targetPoint" />
          </mxGeometry>
        </mxCell>
        <mxCell id="KUCTA_fGjytKfLUlNLZ2-27" value="" style="endArrow=classic;html=1;rounded=0;" edge="1" parent="KUCTA_fGjytKfLUlNLZ2-15">
          <mxGeometry width="50" height="50" relative="1" as="geometry">
            <mxPoint x="50" y="260" as="sourcePoint" />
            <mxPoint x="49.5" y="300" as="targetPoint" />
          </mxGeometry>
        </mxCell>
        <mxCell id="KUCTA_fGjytKfLUlNLZ2-28" value="fer to cel" style="text;html=1;strokeColor=none;fillColor=none;align=center;verticalAlign=middle;whiteSpace=wrap;rounded=0;" vertex="1" parent="1">
          <mxGeometry x="130" y="40" width="60" height="30" as="geometry" />
        </mxCell>
        <mxCell id="KUCTA_fGjytKfLUlNLZ2-29" value="Additon" style="text;html=1;strokeColor=none;fillColor=none;align=center;verticalAlign=middle;whiteSpace=wrap;rounded=0;" vertex="1" parent="1">
          <mxGeometry x="300" y="40" width="60" height="30" as="geometry" />
        </mxCell>
      </root>
    </mxGraphModel>
  </diagram>
</mxfile>
